<svg id="Capa_1" enable-background="new 0 0 512 512" height="512" viewBox="0 0 512 512" width="512" xmlns="http://www.w3.org/2000/svg"><g><path d="m417.974 154.735c-3.839-37.967-35.801-66.862-73.963-66.862h-176.023c-38.161 0-70.124 28.895-73.963 66.862l-14.493 143.361v21.539h352.937v-21.539z" fill="#fed843"/><path d="m432.468 298.096-14.494-143.361c-3.839-37.967-35.801-66.862-73.963-66.862h-88.011v231.762h176.468z" fill="#fabe2c"/><path d="m432.666 298.096h-353.332c-43.815 0-79.334 35.519-79.334 79.335h512c0-43.816-35.519-79.335-79.334-79.335z" fill="#fabe2c"/><path d="m432.666 298.096h-176.666v79.334h256c0-43.815-35.519-79.334-79.334-79.334z" fill="#ff9100"/><path d="m164.286 209.215c29.481 29.481 36.58 88.879 36.58 88.879s-59.398-7.099-88.879-36.581c-.368-.368-.731-.739-1.086-1.111-32.973-34.468 17.806-85.247 52.274-52.274.372.356.742.718 1.111 1.087z" fill="#963ea0"/><path d="m289.746 261.514c-29.481 29.481-88.879 36.58-88.879 36.58s7.099-59.397 36.581-88.879c.369-.369.739-.731 1.111-1.086 34.469-32.973 85.247 17.806 52.274 52.274-.357.372-.719.742-1.087 1.111z" fill="#5a3781"/><path d="m111.987 334.675c29.481-29.481 88.879-36.58 88.879-36.58s-7.099 59.397-36.581 88.879c-.369.369-.739.731-1.111 1.086-34.468 32.973-85.247-17.806-52.274-52.274.357-.373.719-.743 1.087-1.111z" fill="#963ea0"/><path d="m112.153 261.113c41.693 0 88.713 36.981 88.713 36.981s-47.02 36.98-88.713 36.98c-.521 0-1.039-.006-1.554-.017-47.688-1.058-47.688-72.869 0-73.927.515-.011 1.033-.017 1.554-.017z" fill="#c66dd6"/><path d="m237.447 386.973c-29.481-29.481-36.58-88.88-36.58-88.88s59.397 7.1 88.879 36.581c.369.368.731.739 1.086 1.111 32.973 34.468-17.806 85.247-52.274 52.274-.372-.355-.743-.717-1.111-1.086z" fill="#5a3781"/><path d="m289.58 335.075c-41.693 0-88.713-36.981-88.713-36.981s47.02-36.98 88.713-36.98c.521 0 1.039.006 1.554.017 47.688 1.058 47.688 72.87 0 73.927-.515.011-1.033.017-1.554.017z" fill="#825ccd"/><path d="m237.847 209.381c0 41.693-36.981 88.713-36.981 88.713s-36.98-47.02-36.98-88.713c0-.521.006-1.039.017-1.554 1.058-47.688 72.869-47.688 73.927 0 .011.515.017 1.033.017 1.554z" fill="#c66dd6"/><path d="m237.83 207.827c-.529-23.844-18.746-35.766-36.964-35.766v126.033c.003-.003 36.981-47.022 36.981-88.713 0-.521-.006-1.039-.017-1.554z" fill="#825ccd"/><path d="m163.886 386.807c0-41.693 36.981-88.713 36.981-88.713s36.98 47.02 36.98 88.713c0 .521-.006 1.039-.017 1.554-1.058 47.688-72.87 47.688-73.927 0-.012-.515-.017-1.032-.017-1.554z" fill="#c66dd6"/><path d="m200.867 298.094-.001 126.033c18.218 0 36.435-11.922 36.964-35.766.011-.515.017-1.032.017-1.554 0-41.692-36.98-88.713-36.98-88.713z" fill="#825ccd"/><g><path d="m168.983 329.977c-17.58-17.58-17.58-46.186 0-63.766s46.186-17.58 63.766 0 17.58 46.186 0 63.766c-17.58 17.581-46.185 17.581-63.766 0z" fill="#ededfc"/></g><path d="m232.749 266.211c-8.79-8.79-20.337-13.186-31.883-13.185v90.137c11.547 0 23.093-4.395 31.883-13.185 17.581-17.581 17.581-46.186 0-63.767z" fill="#cacaed"/></g></svg>