<?xml version="1.0"?>
<svg xmlns="http://www.w3.org/2000/svg" viewBox="0 0 512 512" width="512" height="512"><g id="Filled_outline" data-name="Filled outline"><path d="M232,192l-88.26-31.52L120,152a72.006,72.006,0,0,1,72-72l8.87,24.83Z" style="fill:#ffb531"/><path d="M232,192l-88.26-31.52c22.59-12.25,42.78-30.2,57.13-55.65Z" style="fill:#ffa912"/><path d="M389.363,31.888A16.318,16.318,0,0,0,375.515,24h-1.023a16.471,16.471,0,0,0-15.065,10.24L272,240h30.593L390.377,48.705A17.931,17.931,0,0,0,389.363,31.888Z" style="fill:#e0e0de"/><path d="M336,176a80.012,80.012,0,0,1-156.7,22.81,78.574,78.574,0,0,1-2.03-8.57l-.01-.01a80.008,80.008,0,1,1,158.55-19.74C335.94,172.31,336,174.15,336,176Z" style="fill:#f2dec2"/><path d="M336,176a80.012,80.012,0,0,1-156.7,22.81,81.459,81.459,0,0,0,114.63-93.26,79.983,79.983,0,0,1,41.88,64.94C335.94,172.31,336,174.15,336,176Z" style="fill:#ead7bc"/><path d="M335.81,170.49A16,16,0,0,1,304,168v-8a16,16,0,1,0-32,0v16a16,16,0,1,1-32,0,16,16,0,1,0-32,0v8a15.992,15.992,0,0,1-30.73,6.24l-.01-.01A15.936,15.936,0,0,1,176,184v-8a80,80,0,0,1,159.81-5.51Z" style="fill:#6e3d26"/><path d="M288,80a32,32,0,1,1-13.19-25.89A32,32,0,0,1,288,80Z" style="fill:#f35244"/><path d="M296,456H216a32,32,0,0,0-32,32H328A32,32,0,0,0,296,456Z" style="fill:#a0dde5"/><path d="M360,232l-24,32-6.06,24.23L288,456H224l-20.1-80.39L176,264l-24-32,17.02-12.06a28.131,28.131,0,0,1,30.72-1.16l8.05,4.82a28.122,28.122,0,0,0,31.34-1.61,28.09,28.09,0,0,1,33.74,0,28.106,28.106,0,0,0,31.34,1.61l8.05-4.82a28.131,28.131,0,0,1,30.72,1.16Z" style="fill:#a0dde5"/><path d="M329.94,288.23,288,456H224l-20.1-80.39A409.121,409.121,0,0,0,329.94,288.23Z" style="fill:#92d8e0"/><path d="M288,80a32,32,0,0,1-61.62,12.13A37.34,37.34,0,0,0,274.89,56.5c0-.8-.03-1.6-.08-2.39A31.974,31.974,0,0,1,288,80Z" style="fill:#e64c3f"/><path d="M396.172,27.694A24.188,24.188,0,0,0,375.51,16h-1.02a24.452,24.452,0,0,0-22.424,15.111L317.316,112.9a87.421,87.421,0,0,0-24.662-16.906,39.973,39.973,0,0,0-27.1-54.83A16.007,16.007,0,0,1,280,32V16a32.049,32.049,0,0,0-31.138,24.651A39.968,39.968,0,0,0,219.35,96a86.717,86.717,0,0,0-10.991,6.024L199.534,77.31A8,8,0,0,0,192,72a80.005,80.005,0,0,0-80,80,8,8,0,0,0,5.31,7.534l32,11.428,5.38-15.068-26.454-9.448a64.032,64.032,0,0,1,58.21-58.21l8.661,24.255A88.3,88.3,0,0,0,168.1,171.669c-.065,1.44-.1,2.9-.1,4.331a88.687,88.687,0,0,0,1.386,15.646c.021.12.046.239.073.357a87.348,87.348,0,0,0,4.755,16.517,36.032,36.032,0,0,0-9.818,4.9l-17.02,12.056A8,8,0,0,0,145.6,236.8l23.031,30.708,45.14,180.557A40.05,40.05,0,0,0,176,488a8,8,0,0,0,8,8H328a8,8,0,0,0,8-8,40.05,40.05,0,0,0-37.771-39.935l45.14-180.557L366.4,236.8a8,8,0,0,0-1.776-11.328L347.6,213.416a36.038,36.038,0,0,0-9.823-4.9A88.29,88.29,0,0,0,344,176c0-2.09-.071-4.137-.2-6-.011-.174-.032-.338-.044-.511l53.9-117.445A25.8,25.8,0,0,0,396.172,27.694Zm-88.03,184.224-8.044,4.827a20.04,20.04,0,0,1-22.425-1.157,36.307,36.307,0,0,0-43.346,0,20.044,20.044,0,0,1-22.425,1.155l-8.044-4.826a36.019,36.019,0,0,0-9.651-4.023A24.031,24.031,0,0,0,216,184v-8a8,8,0,1,1,16,0,24,24,0,0,0,48,0V160a8,8,0,0,1,16,0v8a23.978,23.978,0,0,0,24,24,24.308,24.308,0,0,0,6.382-.849,71.961,71.961,0,0,1-5.516,16.114A36.045,36.045,0,0,0,308.142,211.918ZM256,56a24,24,0,1,1-24,24A24.028,24.028,0,0,1,256,56ZM184.08,172.424A72.054,72.054,0,0,1,196.185,136H208V122.376c.533-.477,1.056-.963,1.6-1.426a71.324,71.324,0,0,1,19.232-11.624,39.9,39.9,0,0,0,54.336-.007A71.285,71.285,0,0,1,296,116.142V128h13.651c1.3,1.447,2.542,2.94,3.72,4.49a71.513,71.513,0,0,1,14.266,36.355c0,.043.009.086.013.128.038.337.072.676.1,1.027A8,8,0,0,1,312,168v-8a24,24,0,1,0-48,0v16a8,8,0,1,1-16,0,24,24,0,1,0-48,0v8a8.01,8.01,0,0,1-13.643,5.685,8.1,8.1,0,0,1-1.381-1.851A72.849,72.849,0,0,1,184,176C184,174.806,184.027,173.592,184.08,172.424ZM318.629,480H193.371A24.042,24.042,0,0,1,216,464h80A24.042,24.042,0,0,1,318.629,480Zm30.039-246.224L332,256H208v16H325.754l-44,176h-6.783l13-158.011-15.946-1.312L258.918,448h-5.836L239.973,288.677l-15.946,1.312,13,158.011h-6.783L183.761,262.06a7.982,7.982,0,0,0-1.361-2.86l-19.068-25.424,10.312-7.3a20.125,20.125,0,0,1,21.982-.834l8.044,4.825a35.98,35.98,0,0,0,40.257-2.075,20.227,20.227,0,0,1,24.146,0,35.977,35.977,0,0,0,40.257,2.077l8.044-4.826a20.117,20.117,0,0,1,21.982.834Zm34.441-188.4-45.183,98.45a87.7,87.7,0,0,0-9.07-17.168L366.8,37.362A8.485,8.485,0,0,1,374.49,32h1.02a8.3,8.3,0,0,1,7.042,4.09A9.97,9.97,0,0,1,383.109,45.373ZM256,144H240V128h16Z"/></g></svg>
