<?xml version="1.0"?>
<svg xmlns="http://www.w3.org/2000/svg" width="512" height="512" viewBox="0 0 128 128"><g><g><path d="M64,126.247h0a7.312,7.312,0,0,1-7.312-7.312V90.813H71.313v28.122A7.313,7.313,0,0,1,64,126.247Z" fill="#ffe671"/><path d="M90.623,26.691a6.6,6.6,0,0,1-6.429-8.2c-.065,0-.129.01-.2.01a6.626,6.626,0,0,1-6.625-6.625,6.624,6.624,0,0,1-6.09-9.232A29.914,29.914,0,0,0,34.094,31.653v53.16a6,6,0,0,0,6,6H87.906a6,6,0,0,0,6-6V31.653a30.06,30.06,0,0,0-.525-5.569A6.588,6.588,0,0,1,90.623,26.691Z" fill="#bc8871"/><path d="M59.252,80.813H47.1V38.328a6.078,6.078,0,0,1,6.078-6.078h0a6.078,6.078,0,0,1,6.078,6.078Z" fill="#6d4c41"/><path d="M80.9,80.813H68.748V38.328a6.078,6.078,0,0,1,6.078-6.078h0A6.078,6.078,0,0,1,80.9,38.328Z" fill="#6d4c41"/></g><g><path d="M59.252,82.563A1.75,1.75,0,0,0,61,80.813V38.328a7.828,7.828,0,0,0-15.656,0V80.813a1.751,1.751,0,0,0,1.75,1.75ZM48.846,38.328a4.328,4.328,0,0,1,8.656,0V79.063H48.846Z"/><path d="M80.9,56.813a1.75,1.75,0,0,0-1.75,1.75V62.5a1.75,1.75,0,0,0,3.5,0V58.563A1.75,1.75,0,0,0,80.9,56.813Z"/><path d="M82.654,38.328a7.828,7.828,0,0,0-15.656,0V80.813a1.75,1.75,0,0,0,1.75,1.75H80.9a1.751,1.751,0,0,0,1.75-1.75V73.938a1.75,1.75,0,1,0-3.5,0v5.125H70.5V38.328a4.328,4.328,0,0,1,8.656,0v8.8a1.75,1.75,0,0,0,3.5,0Z"/><path d="M95.1,25.76a1.75,1.75,0,0,0-2.45-1.266,4.821,4.821,0,0,1-2.027.447,4.881,4.881,0,0,1-4.875-4.875,4.821,4.821,0,0,1,.147-1.16,1.751,1.751,0,0,0-.341-1.516,1.717,1.717,0,0,0-1.412-.647c-.022,0-.121.007-.144.009a4.881,4.881,0,0,1-4.875-4.875,1.749,1.749,0,0,0-1.75-1.75A4.881,4.881,0,0,1,72.5,5.252a4.826,4.826,0,0,1,.393-1.918A1.749,1.749,0,0,0,71.708.947a31.694,31.694,0,0,0-25.6,4.589,1.75,1.75,0,0,0,1.98,2.886A28,28,0,0,1,64,3.5a28.3,28.3,0,0,1,5.1.464,8.376,8.376,0,0,0,6.678,9.513,8.4,8.4,0,0,0,6.472,6.593,8.375,8.375,0,0,0,9.709,8.267,28.119,28.119,0,0,1,.2,3.319v53.16a4.255,4.255,0,0,1-4.25,4.25H40.094a4.255,4.255,0,0,1-4.25-4.25V31.653a27.845,27.845,0,0,1,6.2-17.626,1.75,1.75,0,0,0-2.727-2.193,31.732,31.732,0,0,0-6.971,19.819v53.16a7.759,7.759,0,0,0,7.75,7.75H54.938v26.372a9.063,9.063,0,0,0,18.125,0V92.563H87.906a7.759,7.759,0,0,0,7.75-7.75V31.653A31.907,31.907,0,0,0,95.1,25.76ZM69.563,118.935a5.563,5.563,0,0,1-11.125,0V92.563H69.563Z"/></g></g></svg>
