<?xml version="1.0" encoding="iso-8859-1"?>
<!-- Generator: Adobe Illustrator 19.0.0, SVG Export Plug-In . SVG Version: 6.00 Build 0)  -->
<svg version="1.1" id="Layer_1" xmlns="http://www.w3.org/2000/svg" xmlns:xlink="http://www.w3.org/1999/xlink" x="0px" y="0px"
	 viewBox="0 0 512 512" style="enable-background:new 0 0 512 512;" xml:space="preserve">
<path style="fill:#64DDE3;" d="M212.686,67.189L170.885,3.443c-3.278-4.59-10.328-4.591-13.606,0l-41.801,63.746
	c-1.013,1.418-1.557,3.116-1.557,4.859V503.64c0,4.617,3.743,8.36,8.36,8.36h83.601c4.617,0,8.36-3.743,8.36-8.36V72.048
	C214.243,70.306,213.699,68.607,212.686,67.189z"/>
<path style="fill:#38CED9;" d="M130.642,503.64V72.048c0-1.742,0.544-3.441,1.557-4.859l40.244-61.566l-1.557-2.18
	c-3.278-4.59-10.328-4.591-13.606,0l-41.801,63.746c-1.013,1.418-1.557,3.116-1.557,4.859V503.64c0,4.617,3.743,8.36,8.36,8.36
	h16.72C134.384,512,130.642,508.258,130.642,503.64z"/>
<g>
	<path style="fill:#0EBEC7;" d="M180.802,512c-4.617,0-8.36-3.743-8.36-8.36v-55.386c0-4.617,3.743-8.36,8.36-8.36
		c4.617,0,8.36,3.743,8.36,8.36v55.386C189.163,508.258,185.419,512,180.802,512z"/>
	<path style="fill:#0EBEC7;" d="M180.802,398.093c-4.617,0-8.36-3.743-8.36-8.36v-91.962c0-4.617,3.743-8.36,8.36-8.36
		c4.617,0,8.36,3.743,8.36,8.36v91.962C189.163,394.351,185.419,398.093,180.802,398.093z"/>
	<path style="fill:#0EBEC7;" d="M155.722,456.614c-4.617,0-8.36-3.743-8.36-8.36v-91.962c0-4.617,3.743-8.36,8.36-8.36
		c4.617,0,8.36,3.743,8.36,8.36v91.962C164.082,452.872,160.339,456.614,155.722,456.614z"/>
</g>
<circle style="fill:#FFC412;" cx="164.078" cy="88.768" r="16.72"/>
<path style="fill:#FFD042;" d="M511.917,180.473c-0.282-3.07-2.23-5.736-5.069-6.937l-50.49-21.988l15.158-19.278
	c3.31-4.21,1.727-10.609-3.153-12.796l-44.485-19.936c-1.383-0.62-2.907-0.851-4.412-0.672L7.33,148.533
	c-7.232,0.865-9.911,10.361-4.174,14.873l19.586,17.687l-10.524,20.775c-1.065,2.102-1.193,4.554-0.354,6.755l10.957,28.755
	l-11.952,23.591c-1.801,3.555-0.842,7.887,2.291,10.35l22.184,17.441l-17.299,29.907c-3.387,5.853,1.531,13.288,8.23,12.487
	l423.347-50.661c3.706-0.443,6.669-3.29,7.261-6.975l9.066-56.461l42.246-28.839C510.767,186.519,512.198,183.543,511.917,180.473z"
	/>
<path style="fill:#FFC412;" d="M18.043,318.667c-3.387,5.853,1.531,13.288,8.23,12.487l423.347-50.661
	c3.706-0.443,6.669-3.29,7.261-6.975l2.451-15.26L22.893,310.282L18.043,318.667z"/>
<g>
	<path style="fill:#FF9940;" d="M148.161,223.95c-0.549-4.584-4.705-7.852-9.294-7.308l-3.973-33.203
		c-0.549-4.584-4.708-7.851-9.294-7.308l-41.504,4.966c-2.201,0.263-4.208,1.391-5.578,3.134c-1.37,1.743-1.992,3.96-1.728,6.161
		l9.933,83.01c0.263,2.201,1.391,4.208,3.134,5.578c1.481,1.164,3.303,1.788,5.168,1.788c0.33,0,0.661-0.02,0.994-0.06l49.806-5.961
		c4.584-0.549,7.856-4.71,7.308-9.294L148.161,223.95z M94.383,196.706l24.903-2.979l2.98,24.903l-24.903,2.98L94.383,196.706z
		 M102.329,263.114l-2.98-24.903l33.203-3.973l2.98,24.903L102.329,263.114z"/>
	<path style="fill:#FF9940;" d="M210.241,250.2l-33.203,3.973l-2.98-24.903l16.602-1.987c4.584-0.549,7.856-4.71,7.308-9.294
		c-0.549-4.583-4.704-7.855-9.294-7.308l-16.602,1.987l-2.98-24.903l33.203-3.973c4.584-0.549,7.856-4.71,7.308-9.294
		s-4.708-7.851-9.294-7.308l-41.505,4.967c-2.201,0.263-4.208,1.391-5.578,3.134c-1.371,1.743-1.992,3.96-1.728,6.161l9.934,83.009
		c0.263,2.201,1.391,4.208,3.134,5.578c1.481,1.164,3.303,1.788,5.168,1.788c0.33,0,0.661-0.02,0.994-0.06l41.504-4.967
		c4.584-0.549,7.856-4.71,7.308-9.294C218.987,252.922,214.826,249.652,210.241,250.2z"/>
	<path style="fill:#FF9940;" d="M258.771,166.195c-1.473-3.386-4.992-5.403-8.659-4.964c-3.666,0.439-6.61,3.23-7.243,6.867
		L227.9,254.087c-0.792,4.549,2.254,8.878,6.802,9.67c0.485,0.085,0.968,0.125,1.443,0.125c3.988,0,7.519-2.864,8.226-6.927
		l6.417-36.866l12.551-1.503l14.935,34.311c1.842,4.234,6.77,6.172,11.002,4.328c4.233-1.842,6.172-6.769,4.328-11.002
		L258.771,166.195z M253.785,202.891l0.779-4.471l1.811,4.161L253.785,202.891z"/>
	<path style="fill:#FF9940;" d="M351.357,233.313l-33.203,3.973l-7.946-66.407l33.203-3.973c4.584-0.549,7.856-4.71,7.308-9.294
		c-0.549-4.584-4.705-7.855-9.294-7.308l-41.505,4.967c-4.585,0.549-7.856,4.71-7.308,9.294l9.933,83.009
		c0.263,2.201,1.391,4.208,3.134,5.578c1.481,1.164,3.303,1.788,5.168,1.788c0.33,0,0.661-0.02,0.994-0.06l41.505-4.967
		c4.585-0.549,7.856-4.71,7.308-9.294C360.103,236.035,355.94,232.768,351.357,233.313z"/>
	<path style="fill:#FF9940;" d="M435.443,231.681l-4.881-41.5c0-0.002,0-0.003,0-0.005s0-0.003,0-0.005l-5.051-41.5
		c-0.548-4.584-4.752-7.855-9.337-7.308c-4.584,0.549-7.877,4.71-7.329,9.294l3.963,33.203l-33.209,3.973l-3.976-33.203
		c-0.548-4.584-4.711-7.855-9.295-7.308c-4.584,0.549-7.856,4.71-7.308,9.294l9.934,83.009c0.508,4.247,4.116,7.367,8.29,7.367
		c0.331,0,0.667-0.02,1.003-0.061c4.584-0.549,7.856-4.71,7.308-9.294l-3.973-33.203l33.203-3.973l3.973,33.204
		c0.508,4.247,4.116,7.367,8.29,7.367c0.331,0,0.71-0.02,1.046-0.061C432.678,240.426,435.991,236.265,435.443,231.681z"/>
</g>
<g>
</g>
<g>
</g>
<g>
</g>
<g>
</g>
<g>
</g>
<g>
</g>
<g>
</g>
<g>
</g>
<g>
</g>
<g>
</g>
<g>
</g>
<g>
</g>
<g>
</g>
<g>
</g>
<g>
</g>
</svg>
