<svg height="512" viewBox="0 0 60 60" width="512" xmlns="http://www.w3.org/2000/svg"><g id="Page-1" fill="none" fill-rule="evenodd"><g id="027---Desert-Island" fill-rule="nonzero"><path id="Shape" d="m47.75 38.5c11.25 2.15 11.25 10.5 11.25 10.5v7c-2.97 0-4.12 1.13-5.68 2-2.4964575 1.3333356-5.4935425 1.3333356-7.99 0-1.56-.87-2.71-2-5.67-2s-4.11 1.13-5.67 2c-1.2151835.6968691-2.5998408 1.0430334-4 1-1.3968569.0418032-2.7779708-.3043406-3.99-1-1.56-.87-2.71-2-5.67-2s-4.11 1.13-5.67 2c-1.2151835.6968691-2.5998408 1.0430334-4 1-1.40015916.0430334-2.78481646-.3031309-4-1-1.52-.85-2.65-1.95-5.46-2h-.19c-.5-4.05 1.59-8.41 12.01-9.78l14.25-5.18c2.7661312-1.4726519 5.7923486-2.393084 8.91-2.71z" fill="#f3d55b"/><path id="Shape" d="m28 43.5c-.0025463 1.9088475-1.2091227 3.6083931-3.0103497 4.2402843-1.8012271.6318911-3.8051337.0586198-4.9996503-1.4302843-.0377225-.8246607-.37559-1.6070907-.95-2.2-.02858-.2020458-.041951-.4059522-.04-.61 0-1.6076952.8576951-3.0932668 2.25-3.8971144 1.3923048-.8038476 3.1076952-.8038476 4.5 0 1.3923049.8038476 2.25 2.2894192 2.25 3.8971144z" fill="#603e26"/><path id="Shape" d="m20 46.5c0 1.9329966-1.5670034 3.4999999-3.5 3.4999999s-3.5-1.5670033-3.5-3.4999999c-.0033047-.0937789.0033999-.1876429.02-.28.1382162-1.8188269 1.6559317-3.2231499 3.48-3.22.9652029-.0042043 1.8874278.3988152 2.54 1.11.57441.5929093.9122775 1.3753393.95 2.2.0083152.0629727.0116589.1265024.01.19z" fill="#805333"/><circle id="Oval" cx="52" cy="47" fill="#b19046" r="1"/><circle id="Oval" cx="48" cy="49" fill="#b19046" r="1"/><circle id="Oval" cx="52" cy="51" fill="#b19046" r="1"/><path id="Shape" d="m49.33 60c-1.5717769.0456473-3.125503-.3447744-4.489-1.128-.3-.168-.591-.347-.879-.525-2.5870221-1.7965459-6.0179779-1.7965459-8.605 0-.288.178-.577.356-.879.525-1.3634608.782413-2.9166344 1.1727828-4.488 1.128-1.5684454.0441575-3.1185588-.3462261-4.479-1.128-.3-.168-.59-.346-.878-.524-1.2476103-.9092266-2.7596248-1.3828951-4.303-1.348-1.5423164-.0372684-3.053819.4355156-4.3 1.345-.289.179-.579.358-.884.528-1.3628406.7820465-2.9153635 1.1720806-4.486 1.127-1.57177689.0456473-3.12550304-.3447744-4.489-1.128-.3-.169-.591-.347-.879-.526-1.19286278-.871906-2.6314569-1.3431515-4.109-1.346h-.183c-.55228475 0-1-.4477153-1-1s.44771525-1 1-1h.2c1.84398187.0071366 3.6410532.5818363 5.147 1.646.262.164.525.327.8.481 1.06610998.6143145 2.28334395.9168039 3.513.873 1.2288361.0432458 2.4451879-.2588501 3.511-.872.279-.156.543-.32.807-.483 1.5630956-1.1047026 3.4382771-1.6810617 5.352-1.645 1.9149798-.0340259 3.7910113.5428643 5.356 1.647.262.163.525.326.8.48 1.0622446.6121499 2.2746988.9145706 3.5.873 1.2288361.0432458 2.4451879-.2588501 3.511-.872.278-.155.541-.318.8-.481 3.2321531-2.1952777 7.4768469-2.1952777 10.709 0 .263.163.526.326.8.48 2.1931386 1.1639346 4.8208614 1.1639346 7.014 0 .277-.155.54-.317.8-.48 1.5718565-1.1085828 3.4569313-1.6856679 5.38-1.647.5522847 0 1 .4477153 1 1s-.4477153 1-1 1c-1.5471346-.0363627-3.0631977.4377145-4.314 1.349-.289.178-.576.356-.878.524-1.360329.7810515-2.9100094 1.1710671-4.478 1.127z" fill="#3b97d3"/><path id="Shape" d="m28.05 10.17c.1020737.3306126.2466136.6465836.43.94-.4136161-.1116924-.8419863-.1589144-1.27-.14-.5464293.0252852-1.0858787.1331751-1.6.32-.01 0-.01-.01-.02 0-.8794513-.3441802-1.8155984-.5205558-2.76-.52-1.11-2.61-3.96-4.17-6.56-5.3-.3555156-.15493555-.5893954-.50145136-.6001043-.88911314-.0107089-.38766179.2036844-.74656083.5501043-.92088686 2.88-1.44 6.3-2.28 9.37-1.11 1.254809.49390361 2.3654573 1.29508334 3.23 2.33-.1790576.29311569-.332942.60088451-.46.92-.6097709 1.37594714-.7194276 2.92175273-.31 4.37z" fill="#26b99a"/><path id="Shape" d="m28 12c-.4302393-.0003267-.8120445-.2758064-.948-.684-.3891299-1.41016777-1.2813366-2.6289478-2.508-3.426-.4888792-.25323727-.6810926-.8540158-.43-1.344.2467801-.48934217.843072-.68661503 1.333-.441 1.7000009 1.03297726 2.9493612 2.66749742 3.5 4.579.1014653.3046381.050475.6394696-.1370723.900095s-.4888369.4153403-.8099277.415905z" fill="#33907c"/><path id="Shape" d="m48 44c0 1.1-2.69 2-6 2s-6-.9-6-2c0 0 .22-2.32.18-5.67-.01-.55-.02-1.13-.04-1.74-.02-.47-.04-.95-.07-1.45-.01-.2-.02-.41-.04-.62-.09-1.45-.25-2.99-.5-4.55-.09-.63-.21-1.25-.33-1.88-.0085484-.0609641-.0219238-.1211532-.04-.18-.3953693-2.0342576-1.0019893-4.021692-1.81-5.93-.22-.52-.47-1.03-.73-1.52h-.01c-.1-.19-.2-.37-.31-.55-.4612462-.8167885-1.0004239-1.5870424-1.61-2.3.4859924-.2871389.8837921-.7022343 1.15-1.2.0426622-.0942849.0794003-.1911397.11-.29.0419301-.1195321.0688037-.2438228.08-.37.0208115-.1087481.03086-.2192818.03-.33.0013072-.090112-.0020305-.1802316-.01-.27l-.03-.21c-.0241694-.1766098-.0643345-.3506585-.12-.52.2901386.3010614.6511521.524546 1.05.65.6077329.1501945 1.2470844.1082699 1.83-.12.23-.08.46-.17.68-.27.4186989-.1908525.8583832-.33182 1.31-.42.7874331.6444998 1.5292133 1.3428424 2.22 2.09l.29.32c.38.42.77.89 1.18 1.4 1.8284167 2.3733138 3.3068163 4.9967153 4.39 7.79.06.15.12.3.18.46.18.47.36.95.53 1.45.746107 2.2131844 1.3080197 4.4842481 1.68 6.79.04.19.07.38.1.57.07.45.14.92.19 1.39.09.64.16 1.3.22 1.98.16 1.73.25 3.56.25 5.5z" fill="#805333"/><g fill="#603e26"><path id="Shape" d="m40.46 18.07c-.9093986 1.254035-2.1293356 2.2499722-3.54 2.89-1.1124475.5686659-2.3250419.9151215-3.57 1.02-.22-.52-.47-1.03-.73-1.52h-.01c-.1-.19-.2-.37-.31-.55 1.2953211.1710097 2.6107671-.092783 3.74-.75 2.21-1.08 3-2.4 2.95-2.75 0-.02-.01-.04 0-.06l.29.32c.38.42.77.89 1.18 1.4z"/><path id="Shape" d="m45.03 26.32c-.06-.16-.12-.31-.18-.46-1.4901508.8409307-3.1138085 1.4193588-4.8 1.71-1.5975076.39885-3.2526671.5139327-4.89.34.0180762.0588468.0314516.1190359.04.18.12.63.24 1.25.33 1.88.2666667.02.5466667.03.84.03 1.3749711-.0293077 2.7442215-.1866543 4.09-.47 1.7718669-.3529717 3.4875596-.9450539 5.1-1.76-.17-.5-.35-.98-.53-1.45z"/><path id="Shape" d="m47.34 35.13c-.03-.19-.06-.38-.1-.57-1.8242822.3289093-3.6766599.4762956-5.53.44-1.9053083.0522894-3.810487-.1087116-5.68-.48.02.21.03.42.04.62.03.5.05.98.07 1.45 1.8412635.2979372 3.7049566.4351211 5.57.41 1.9510601.0316492 3.900488-.1291283 5.82-.48-.05-.47-.12-.94-.19-1.39z"/></g><path id="Shape" d="m44.54 16.12c-2.37-1.22-5.17-2.38-7.77-1.86-.4516168.08818-.8913011.2291475-1.31.42-.22.1-.45.19-.68.27-.5829156.2282699-1.2222671.2701945-1.83.12-.3988479-.125454-.7598614-.3489386-1.05-.65l-.01-.01c-.1432426-.5515872-.4023234-1.0663399-.76-1.51-.09-.11-.18-.23-.27-.33-.0179735-.0486458-.031365-.0988639-.04-.15h-.01c-.01-.03-.01-.05-.02-.08-.05-.21-.09-.43-.12-.64-.0166347-.1393472-.0233183-.2797027-.02-.42-.0118769-.3726883.0217039-.7454354.1-1.11.1448371-.77605662.4973374-1.49833671 1.02-2.09 1.2543244-1.32249623 2.9972754-2.07102499 4.82-2.07.4542157-.01996192.9093069.00011564 1.36.06 1.0419741.12677789 2.0482367.45993239 2.96.98 2.84 1.64 4.36 4.82 5.06 7.96.0849498.3781985-.0563138.7714231-.3625143 1.0091032s-.7221754.2769973-1.0674857.1008968z" fill="#24ae5f"/><path id="Shape" d="m25.59 11.29c-2.6107017 1.0285562-4.4899283 3.3519637-4.95 6.12-.0794767.512602-.1096146 1.0316443-.09 1.55-1.9124461.3194808-3.7538172.9727614-5.44 1.93-.3460418.1820782-.7664635.1457616-1.076156-.0929597-.3096926-.2387214-.4518355-.6360483-.363844-1.0170403.7-3.15 2.22-6.32 5.06-7.96 1.160296-.6577043 2.466491-1.0151892 3.8-1.04.1 0 .2-.01.3-.01.9444016-.0005558 1.8805487.1758198 2.76.52z" fill="#24ae5f"/><path id="Shape" d="m41.52 3.37c-1.2886539.76153497-2.4863735 1.66737333-3.57 2.7-.4506931-.05988436-.9057843-.07996192-1.36-.06-1.8227246-.00102499-3.5656756.74750377-4.82 2.07-.770003.8835013-1.1709815 2.0291542-1.12 3.2-.0033183.1402973.0033653.2806528.02.42.03.21.07.43.12.64.0187371.0779909.042112.1547941.07.23-.05-.06-.1-.11-.15-.16-.609537-.6302923-1.3811979-1.0801394-2.23-1.3-.1833864-.2934164-.3279263-.6093874-.43-.94-.4094276-1.44824727-.2997709-2.99405286.31-4.37.127058-.31911549.2809424-.62688431.46-.92.7261697-1.27927817 1.7830979-2.3396603 3.06-3.07 2.87-1.6 6.38-1.26 9.44-.24.3673543.12479936.62937.45081926.6722146.8364206s-.1412152.76118518-.4722146.9635794z" fill="#4fba6f"/><path id="Shape" d="m38.98 10.2c-.1104907.5366-.6321805.8843932-1.17.78-.5717065-.09521-1.1504233-.1420426-1.73-.14-1.7134131-.0594991-3.4013766.4272788-4.82 1.39-.1314553.0939574-.281472.1587373-.44.19h-.01c-.01-.03-.01-.05-.02-.08-.05-.21-.09-.43-.12-.64-.0166347-.1393472-.0233183-.2797027-.02-.42-.0118769-.3726883.0217039-.7454354.1-1.11 2.2840923-1.20797567 4.9079712-1.61300397 7.45-1.15.2599387.05299456.4881678.20710452.6344551.42841102.1462874.22130649.1986434.4916715.1455449.75158898z" fill="#4c8056"/><path id="Shape" d="m32.06 15.42c.00086.1107182-.0091885.2212519-.03.33-.0111963.1261772-.0380699.2504679-.08.37-.0305997.0988603-.0673378.1957151-.11.29-.2662079.4977657-.6640076.9128611-1.15 1.2-.2231414.1417773-.4534474.2719502-.69.39-2.89 1.44-3.98 4.9-4.62 7.95-.0791549.3790941-.3700781.6784027-.7467705.7682952s-.7714213-.0457946-1.0132295-.3482952c-1.7819165-2.0827532-2.8568499-4.6772991-3.07-7.41-.0196146-.5183557.0105233-1.037398.09-1.55.4600717-2.7680363 2.3392983-5.0914438 4.95-6.12.01-.01.01 0 .02 0 .5141213-.1868249 1.0535707-.2947148 1.6-.32.4280137-.0189144.8563839.0283076 1.27.14.3423173.0818645.6719772.2096918.98.38.464772.235275.8871971.5461799 1.25.92.05.05.1.1.15.16.09.1.18.22.27.33.3576766.4436601.6167574.9584128.76 1.51l.01.01c.0556655.1693415.0958306.3433902.12.52l.03.21c.0079695.0897684.0113072.179888.01.27z" fill="#4fba6f"/><path id="Shape" d="m31.13 12.9c-.1013593.0928221-.2203997.1642463-.35.21-.94.34-3.2 1.32-3.83 3.21-.1375721.4073117-.5200841.6811098-.95.68-.1083857-.002696-.215958-.0195042-.32-.05-.5213514-.1805176-.8017081-.7456812-.63-1.27.8086775-1.9592813 2.4119342-3.4825569 4.41-4.19.464772.235275.8871971.5461799 1.25.92.05.05.1.1.15.16.09.1.18.22.27.33z" fill="#24ae5f"/></g></g></svg>