<svg id="Layer_3" enable-background="new 0 0 64 64" height="512" viewBox="0 0 64 64" width="512" xmlns="http://www.w3.org/2000/svg"><g><path d="m2.768 34.36 1.308-1.09c6.412-5.344 14.495-8.27 22.842-8.27 7.218 0 14.266 2.189 20.214 6.278l6.868 4.722-6.868 4.722c-5.948 4.089-12.996 6.278-20.214 6.278-8.347 0-16.43-2.926-22.842-8.27l-1.308-1.09c-.487-.405-.768-1.006-.768-1.64 0-.634.281-1.235.768-1.64z" fill="#e7e4dd"/><path d="m45.095 42.023-.095-.023c-11.251-3.971-23.096-6-35.028-6h-7.972c0-.634.281-1.235.768-1.64l1.308-1.09c6.412-5.344 14.495-8.27 22.842-8.27 7.218 0 14.266 2.189 20.214 6.278l6.868 4.722-6.868 4.722c-.666.457-1.345.891-2.037 1.301z" fill="#8892a0"/><g fill="#758190"><path d="m37.76 45.313c-3.486 1.112-7.142 1.687-10.842 1.687-1 0-1.996-.042-2.986-.125l1.33 1.598c3.09 3.605 7.172 6.222 11.738 7.527l-.136-.273c-1.687-3.373-1.33-7.397.896-10.414z"/><path d="m33.869 25.684c-1.704-4.271-1.125-9.126 1.557-12.881l.574-.803-.493.179c-6.621 2.408-12.089 7.216-15.325 13.462 2.207-.424 4.462-.641 6.736-.641 2.346 0 4.673.231 6.951.684z"/><path d="m54 36v-6c0-4.418 3.582-8 8-8v6c0 4.418-3.582 8-8 8z"/><path d="m54 36v6c0 4.418 3.582 8 8 8v-6c0-4.418-3.582-8-8-8z"/></g><path d="m9.527 40h-3.823c.972.719 1.977 1.386 3.011 2h.812c3.08 0 6.164-.728 8.918-2.105l-.894-1.789c-2.478 1.238-5.252 1.894-8.024 1.894z" fill="#e47c6e"/><g><path d="m14.499 31.999c-.827 0-1.5-.673-1.5-1.5s.673-1.5 1.5-1.5 1.501.673 1.501 1.501c0 .826-.674 1.499-1.501 1.499z" fill="#243242"/></g><g><path d="m21.999 29h1.999v4h-1.999z" fill="#e7e4dd"/></g><g><path d="m24.999 29h1.999v4h-1.999z" fill="#e7e4dd"/></g><g><path d="m27.999 29h1.999v4h-1.999z" fill="#e7e4dd"/></g><circle cx="13" cy="20" fill="#c7e2fc" r="3"/><circle cx="4" cy="15" fill="#c7e2fc" r="2"/><circle cx="21" cy="10" fill="#c7e2fc" r="2"/><circle cx="48" cy="18" fill="#c7e2fc" r="2"/></g></svg>