<svg id="Capa_1" enable-background="new 0 0 512 512" height="512" viewBox="0 0 512 512" width="512" xmlns="http://www.w3.org/2000/svg"><path d="m161.938 0c-8.284 0-15 6.716-15 15v125.817c0 8.284 6.716 15 15 15s15-6.716 15-15v-125.817c.001-8.284-6.715-15-15-15z" fill="#0095d8"/><path d="m350.062 0c-8.284 0-15 6.716-15 15v125.817c0 8.284 6.716 15 15 15s15-6.716 15-15v-125.817c0-8.284-6.716-15-15-15z" fill="#004972"/><path d="m373.482 183.11-.04.73c-2.26 19.88-9.18 39.28-20.01 56.09-8.65 13.4-14.39 28.8-16.6 44.6l-80.831 20-80.831-20c-2.21-15.8-7.95-31.2-16.59-44.59-10.84-16.82-17.76-36.22-20.01-56.1l-.05-.73c-.24-15.26 1.78-30.43 6.01-45.09l.13-.42c2.06-6.62 7.29-11.7 13.97-13.55 6.61-1.83 13.61-.19 18.73 4.39l63.581 56.75c4.29 3.83 9.68 5.75 15.06 5.75s10.77-1.92 15.06-5.75l63.571-56.74c5.12-4.57 12.12-6.21 18.73-4.38 6.68 1.85 11.91 6.93 13.98 13.59l.11.36c4.23 14.66 6.26 29.83 6.03 45.09z" fill="#fff459"/><path d="m373.482 183.11-.04.73c-2.26 19.88-9.18 39.28-20.01 56.09-8.65 13.4-14.39 28.8-16.6 44.6l-80.831 20v-113.59c5.38 0 10.77-1.92 15.06-5.75l63.571-56.74c5.12-4.57 12.12-6.21 18.73-4.38 6.68 1.85 11.91 6.93 13.98 13.59l.11.36c4.23 14.66 6.26 29.83 6.03 45.09z" fill="#ffd844"/><path d="m373.482 385.08c0 4.45-1.73 8.64-4.87 11.79-3.15 3.16-7.33 4.9-11.79 4.9-2.64 0-8.7 2.09-19.67 16.13-8.39 10.72-16.85 24.85-24.32 37.31-18.28 30.51-34.021 56.79-56.831 56.79-22.8 0-38.551-26.28-56.781-56.71-7.52-12.54-15.98-26.67-24.37-37.39-10.97-14.04-17.03-16.13-19.67-16.13-2.75 0-5.48-.69-7.9-2-8.08-4.36-11.12-14.49-6.77-22.59 13.3-24.71 34.34-71.48 34.66-92.65h161.662c.32 21.17 21.36 67.94 34.66 92.64 1.3 2.44 1.99 5.17 1.99 7.91z" fill="#ff8659"/><path d="m373.482 385.08c0 4.45-1.73 8.64-4.87 11.79-3.15 3.16-7.33 4.9-11.79 4.9-2.64 0-8.7 2.09-19.67 16.13-8.39 10.72-16.85 24.85-24.32 37.31-18.28 30.51-34.021 56.79-56.831 56.79v-227.47h80.831c.32 21.17 21.36 67.94 34.66 92.64 1.3 2.44 1.99 5.17 1.99 7.91z" fill="#ff415b"/></svg>