<svg id="Capa_1" enable-background="new 0 0 512 512" height="512" viewBox="0 0 512 512" width="512" xmlns="http://www.w3.org/2000/svg"><g><g><path d="m486.837 8.08-6.631 1.955c-13.673 4.031-26.117 11.425-36.197 21.504l-331.167 331.167 36.451 36.451 331.168-331.166c10.08-10.08 17.473-22.524 21.504-36.197l1.955-6.631c3.082-10.451-6.632-20.165-17.083-17.083z" fill="#c7c5cb"/><path d="m379.377 211.406-78.782-78.782c-16.003-16.003-41.949-16.003-57.952 0-16.003 16.003-16.003 41.949 0 57.952l78.782 78.782c16.003 16.003 41.949 16.003 57.952 0s16.003-41.949 0-57.952z" fill="#60d9a7"/><path d="m471.003 132.082c-10.292-16.994-23.883-34.371-40.298-50.786s-33.792-30.006-50.786-40.298c-19.577-11.856-44.724-8.778-60.908 7.405l-15.724 15.724c-16.184 16.184-19.261 41.331-7.406 60.908 10.292 16.994 23.883 34.371 40.298 50.786s33.792 30.006 50.786 40.298c19.577 11.856 44.724 8.778 60.908-7.406l15.724-15.724c16.184-16.183 19.261-41.33 7.406-60.907z" fill="#e27858"/><path d="m326.137 276.947c-10.292-16.994-23.883-34.371-40.298-50.786s-33.792-30.006-50.786-40.298c-19.577-11.856-44.724-8.778-60.908 7.406l-15.724 15.723c-16.184 16.184-19.261 41.331-7.406 60.908 10.292 16.994 23.883 34.371 40.298 50.786s33.792 30.006 50.786 40.298c19.577 11.856 44.724 8.778 60.908-7.406l15.724-15.724c16.184-16.183 19.262-41.33 7.406-60.907z" fill="#e27858"/><path d="m246.511 193.276c-3.828-2.63-7.653-5.109-11.458-7.413-19.577-11.856-44.724-8.778-60.908 7.406l-15.724 15.723c-16.184 16.184-19.261 41.331-7.406 60.908 10.292 16.994 23.883 34.371 40.298 50.786 1.118 1.118 2.242 2.22 3.368 3.312 4.199-44.785 21.646-90.488 51.83-130.722z" fill="#dc6742"/><path d="m303.238 136.409c40.096-30.237 85.668-47.8 130.37-52.169-.958-.985-1.925-1.967-2.903-2.945-16.415-16.415-33.792-30.006-50.786-40.298-19.577-11.856-44.724-8.778-60.908 7.405l-15.723 15.724c-16.184 16.184-19.261 41.331-7.406 60.908 2.287 3.778 4.747 7.574 7.356 11.375z" fill="#dc6742"/><path d="m149.233 362.767c-32.423-32.423-84.992-32.423-117.416 0-32.423 32.423-32.423 84.992 0 117.416 32.423 32.423 84.992 32.423 117.416 0 32.423-32.424 32.423-84.993 0-117.416zm-32.508 84.907c-14.469 14.469-37.929 14.469-52.399 0-14.469-14.469-14.469-37.929 0-52.399 14.469-14.469 37.929-14.469 52.399 0 14.469 14.47 14.469 37.93 0 52.399z" fill="#ff6f7f"/><path d="m246.009 193.942c8.116-10.886 17.15-21.38 27.115-31.345 9.788-9.788 20.087-18.674 30.766-26.679l-3.295-3.295c-16.003-16.003-41.949-16.003-57.952 0-16.003 16.003-16.003 41.949 0 57.952z" fill="#00cd8c"/></g><g><path d="m344.932 78.459-7.536 7.536c-2.929 2.929-2.929 7.677 0 10.606 2.929 2.928 7.677 2.928 10.606 0l7.536-7.536c2.929-2.929 2.929-7.677 0-10.606-2.929-2.928-7.678-2.928-10.606 0z"/><path d="m423.367 156.895-7.536 7.536c-4.738 4.737-1.318 12.803 5.303 12.803 1.919 0 3.839-.732 5.303-2.197l7.536-7.536c2.929-2.929 2.929-7.677 0-10.606-2.928-2.929-7.677-2.929-10.606 0z"/><path d="m391.966 133.149c-7.216.493-13.178-5.476-12.683-12.683.284-4.132-2.836-7.712-6.968-7.996-4.125-.285-7.712 2.835-7.996 6.968-1.117 16.25 12.356 29.797 28.674 28.675 4.132-.284 7.252-3.864 6.968-7.996-.282-4.131-3.863-7.247-7.995-6.968z"/><path d="m200.075 223.317-7.536 7.536c-2.929 2.929-2.929 7.677 0 10.606 2.928 2.928 7.677 2.928 10.606 0l7.536-7.536c2.929-2.929 2.929-7.677 0-10.606s-7.677-2.928-10.606 0z"/><path d="m278.509 301.752-7.536 7.536c-4.739 4.739-1.318 12.803 5.303 12.803 1.919 0 3.839-.732 5.303-2.197l7.536-7.536c2.929-2.929 2.929-7.677 0-10.606-2.928-2.929-7.677-2.929-10.606 0z"/><path d="m247.109 278.007c-7.201.494-13.179-5.461-12.683-12.683.284-4.132-2.836-7.711-6.968-7.996-4.142-.284-7.712 2.837-7.996 6.968-1.119 16.293 12.4 29.793 28.675 28.675 4.132-.284 7.252-3.864 6.968-7.996-.284-4.133-3.871-7.252-7.996-6.968z"/><path d="m484.71 1.326c-3.322 1.366-25.616 4.957-46.008 25.349l-27.518 27.518c-8.927-7.125-18.075-13.536-27.382-19.172-22.581-13.675-51.403-10.172-70.092 8.517l-15.722 15.722c-14.894 14.894-20.13 36.221-14.728 55.697-15.93-3.906-33.409.291-45.914 12.796-9.156 9.156-14.198 21.329-14.198 34.277 0 3.974.479 7.874 1.403 11.637-19.477-5.403-40.804-.166-55.698 14.727l-15.723 15.723c-18.689 18.689-22.192 47.512-8.517 70.093 5.636 9.306 12.048 18.454 19.173 27.381l-37.264 37.264c-8.63-3.743-17.839-6.162-27.3-7.069-4.125-.393-7.785 2.627-8.181 6.75-.395 4.123 2.627 7.786 6.75 8.181 17.763 1.702 34.074 9.695 46.151 21.773 29.254 29.254 29.753 77.05 0 106.803-10.147 10.147-22.902 17.159-36.884 20.278-4.043.902-6.589 4.91-5.687 8.952.9 4.034 4.901 6.59 8.953 5.687 16.768-3.74 32.06-12.147 44.225-24.312 26.988-26.988 33.314-66.909 19.028-99.988l37.265-37.264c8.927 7.125 18.075 13.536 27.381 19.172 9.207 5.575 19.448 8.295 29.619 8.295 14.777-.001 29.404-5.743 40.473-16.812l15.723-15.723c14.902-14.901 20.136-36.243 14.719-55.728 16.134 3.966 33.628-.469 45.923-12.765 12.426-12.426 16.68-29.974 12.768-45.91 19.43 5.399 40.783.211 55.725-14.732l15.723-15.723c18.689-18.689 22.192-47.512 8.518-70.092-5.636-9.306-12.047-18.454-19.172-27.381l27.518-27.518c20.475-20.475 23.929-42.553 25.349-46.008 4.753-16.127-10.271-31.149-26.399-26.395zm-318.552 370.792c-3.473-5.273-7.403-10.027-11.61-14.234-4.529-4.529-9.88-8.737-14.238-11.606l33.174-33.173c7.911 8.914 16.577 17.619 25.843 25.843zm147.274-39.144-15.723 15.723c-13.792 13.792-35.059 16.381-51.716 6.293-34.391-20.827-67.75-54.203-88.549-88.549-10.087-16.657-7.5-37.924 6.293-51.717l15.723-15.723c8.172-8.171 18.966-12.409 29.872-12.409 7.502 0 15.056 2.006 21.845 6.117 34.849 21.105 68.008 54.632 88.549 88.549 10.086 16.656 7.498 37.923-6.294 51.716zm60.641-68.493c-12.969 12.968-34.015 13.053-47.088.251-20.119-30.264-48.999-59.151-79.285-79.285-12.721-12.989-12.85-33.986.252-47.088 12.884-12.884 33.877-13.191 47.087-.252 20.117 30.26 49.01 59.159 79.286 79.285 12.8 13.073 12.716 34.121-.252 47.089zm84.216-76.365-15.723 15.723c-13.793 13.793-35.059 16.38-51.716 6.293-34.862-21.116-68.031-54.671-88.549-88.549-10.088-16.657-7.5-37.924 6.293-51.717l15.723-15.723c13.69-13.689 34.94-16.452 51.716-6.293 34.073 20.634 67.551 53.876 88.549 88.549 10.088 16.658 7.5 37.924-6.293 51.717zm38.431-164.636c-1.364 3.353-4.202 22.278-21.568 39.644l-26.61 26.61c-7.876-8.875-16.566-17.609-25.843-25.843l26.61-26.61c17.321-17.321 36.194-20.164 39.644-21.568 4.761-1.406 9.169 3.015 7.767 7.767z"/><path d="m122.042 390.391c-17.369-17.369-45.633-17.369-63.002 0-17.37 17.37-17.37 45.632 0 63.001 8.685 8.685 20.093 13.027 31.501 13.027s22.816-4.342 31.501-13.027c17.369-17.369 17.369-45.631 0-63.001zm-10.606 52.396c-11.521 11.52-30.268 11.522-41.79 0-11.521-11.521-11.521-30.268 0-41.789 11.52-11.52 30.267-11.523 41.79 0 11.521 11.521 11.521 30.268 0 41.789z"/><path d="m70.492 349.09c3.994-1.096 6.344-5.222 5.249-9.216s-5.22-6.344-9.216-5.249c-15.083 4.137-28.912 12.18-39.991 23.259-35.375 35.374-35.38 92.635 0 128.015 13.948 13.948 31.616 22.797 51.095 25.59 4.082.586 7.897-2.242 8.488-6.359.588-4.1-2.26-7.9-6.36-8.488-16.243-2.329-30.98-9.712-42.618-21.349-29.513-29.513-29.517-77.286 0-106.803 9.242-9.242 20.775-15.95 33.353-19.4z"/></g></g></svg>